<?xml version="1.0" standalone="no"?>
<!DOCTYPE svg PUBLIC "-//W3C//DTD SVG 20010904//EN"
 "http://www.w3.org/TR/2001/REC-SVG-20010904/DTD/svg10.dtd">
<svg version="1.0" xmlns="http://www.w3.org/2000/svg"
 width="1152.000000pt" height="1152.000000pt" viewBox="0 0 1152.000000 1152.000000"
 preserveAspectRatio="xMidYMid meet">
<metadata>
Created by potrace 1.14, written by Peter Selinger 2001-2017
</metadata>
<g transform="translate(0.000000,1152.000000) scale(0.100000,-0.100000)"
fill="#000000" stroke="none">
<path d="M5457 11513 c-1 0 -54 -4 -117 -7 -63 -3 -131 -8 -150 -10 -19 -3
-62 -7 -95 -11 -62 -6 -108 -11 -160 -19 -100 -16 -133 -20 -157 -20 -16 -1
-28 -4 -28 -7 0 -3 -6 -6 -12 -6 -31 -2 -133 -20 -133 -23 0 -1 -13 -3 -30 -5
-16 -1 -30 -3 -30 -4 0 -3 -10 -5 -55 -14 -14 -3 -47 -11 -75 -17 -27 -7 -61
-14 -75 -15 -14 -2 -26 -4 -27 -5 -2 -1 -7 -4 -13 -5 -5 -1 -13 -4 -17 -5 -5
-1 -12 -3 -18 -5 -5 -1 -12 -3 -15 -4 -8 -4 -43 -11 -67 -13 -13 -1 -23 -5
-23 -9 0 -3 -6 -6 -12 -6 -16 0 -129 -30 -189 -49 -25 -9 -52 -17 -60 -18 -8
-2 -27 -8 -42 -14 -15 -7 -31 -11 -35 -10 -4 1 -14 -1 -22 -5 -29 -11 -245
-81 -252 -82 -3 0 -10 -3 -14 -7 -4 -5 -13 -8 -21 -8 -11 0 -257 -88 -308
-110 -11 -5 -51 -20 -90 -35 -38 -15 -85 -33 -104 -42 -18 -8 -40 -16 -47 -17
-8 -1 -20 -8 -26 -14 -7 -7 -18 -12 -25 -12 -7 0 -21 -4 -31 -9 -15 -8 -47
-22 -62 -26 -3 0 -27 -11 -55 -24 -27 -13 -70 -32 -95 -43 -110 -49 -140 -63
-220 -100 -149 -71 -422 -208 -436 -219 -8 -6 -14 -9 -14 -6 0 5 -112 -53
-160 -83 -8 -5 -31 -17 -50 -27 -19 -9 -57 -30 -83 -45 -26 -15 -54 -28 -62
-28 -8 0 -15 -4 -15 -9 0 -10 31 -23 110 -47 30 -9 62 -18 70 -22 8 -3 17 -6
20 -7 23 -6 58 -18 75 -25 11 -4 47 -19 80 -32 93 -35 282 -140 305 -167 3 -3
21 -18 40 -33 57 -43 140 -124 140 -137 0 -6 4 -11 9 -11 13 0 85 -107 125
-187 20 -40 33 -73 30 -73 -4 0 -2 -6 3 -12 31 -40 62 -300 42 -348 -5 -13
-23 -78 -44 -165 -7 -27 -48 -109 -57 -113 -5 -2 -8 -9 -8 -15 -1 -32 -209
-247 -240 -247 -6 0 -10 -3 -10 -8 0 -8 -2 -9 -112 -64 -71 -35 -148 -67 -178
-73 -8 -2 -35 -8 -60 -14 -25 -7 -52 -13 -60 -15 -8 -2 -42 -7 -75 -11 -33 -3
-62 -9 -65 -12 -3 -2 -5 -721 -6 -1596 l0 -1592 -25 3 c-61 7 -204 1 -216 -8
-2 -2 -6 -3 -10 -4 -14 -2 -78 -30 -88 -38 -56 -42 -90 -79 -108 -117 l-22
-46 1 -790 0 -790 23 -44 c41 -79 140 -152 241 -179 41 -10 139 -9 190 3 19 5
37 9 40 10 16 3 69 37 93 60 16 15 36 28 45 30 9 2 17 4 17 5 0 0 29 11 65 23
l65 22 37 -58 c21 -32 38 -61 38 -65 0 -5 8 -17 18 -28 9 -10 23 -31 31 -46 8
-15 22 -36 31 -45 9 -10 27 -37 40 -60 13 -24 27 -43 32 -43 4 0 8 -6 8 -14 0
-8 3 -16 8 -18 4 -1 46 -55 93 -118 48 -63 95 -125 105 -137 39 -44 54 -63 54
-68 0 -2 12 -18 28 -34 15 -16 45 -50 67 -76 134 -159 252 -286 442 -477 64
-65 121 -118 126 -118 4 0 5 -4 2 -10 -3 -5 -2 -10 3 -10 5 0 45 -35 89 -77
81 -78 206 -192 253 -233 14 -12 52 -46 86 -75 59 -53 88 -79 129 -113 115
-97 141 -119 155 -130 8 -6 35 -30 60 -52 25 -22 48 -40 51 -40 3 0 19 -12 35
-26 16 -14 41 -36 57 -49 15 -14 27 -23 27 -20 0 3 8 -3 18 -12 10 -10 33 -29
52 -43 19 -14 42 -33 52 -42 10 -10 18 -15 18 -10 0 4 5 -1 11 -10 5 -10 17
-18 24 -18 8 0 15 -3 15 -8 0 -4 27 -28 61 -52 33 -25 66 -49 72 -55 7 -5 39
-30 72 -55 33 -25 62 -48 63 -52 2 -5 10 -8 18 -8 8 0 14 -4 14 -8 0 -5 12
-15 28 -23 15 -8 32 -19 37 -25 9 -10 90 -70 155 -114 12 -8 51 -36 87 -62 35
-27 68 -48 73 -48 6 0 10 -4 10 -10 0 -5 6 -10 13 -10 6 -1 28 -14 47 -30 19
-17 40 -30 47 -30 7 0 13 -3 13 -8 0 -10 155 -112 170 -112 6 0 8 -5 5 -10 -3
-6 -2 -10 3 -10 6 0 58 -31 116 -70 59 -38 111 -70 116 -70 6 0 10 -4 10 -10
0 -5 7 -10 15 -10 8 0 15 -4 15 -10 0 -5 5 -10 11 -10 6 0 30 -13 54 -30 24
-16 50 -30 58 -30 19 0 77 32 77 43 0 4 4 7 10 7 5 0 42 21 82 46 81 52 327
215 343 227 6 4 28 19 50 33 57 37 331 231 377 266 9 7 26 20 39 28 55 37 144
105 147 112 2 5 8 8 13 8 9 0 37 21 70 52 9 9 20 14 23 11 3 -4 6 -1 6 5 0 7
4 12 9 12 8 0 36 21 80 60 9 8 33 26 54 40 20 14 37 28 37 33 0 4 6 7 13 7 7
0 19 9 27 20 8 11 18 20 22 20 8 0 45 29 80 63 10 9 18 14 18 11 0 -4 11 5 25
20 13 14 27 26 32 26 4 0 16 9 28 20 11 11 54 48 95 81 94 76 164 135 210 175
19 17 50 44 69 60 19 16 44 38 57 49 12 11 53 47 90 80 37 33 92 83 122 110
79 72 363 348 442 430 159 165 196 205 193 205 -2 0 6 11 19 23 59 60 98 107
98 117 0 5 7 10 15 10 8 0 15 4 15 10 0 5 14 23 30 40 17 17 30 33 30 36 0 3
6 11 13 18 6 7 23 27 37 45 14 18 37 46 53 62 15 17 27 32 27 35 0 3 5 10 10
17 6 7 20 23 31 37 12 14 53 70 92 125 40 55 75 102 79 103 5 2 8 10 8 18 0 8
5 14 10 14 6 0 10 7 10 15 0 8 5 15 10 15 6 0 10 7 10 15 0 8 5 15 10 15 6 0
10 5 10 12 0 6 12 27 27 47 16 20 28 38 29 41 0 3 10 21 22 40 11 19 21 39 21
44 -1 5 4 12 10 15 12 8 50 74 82 142 19 41 25 46 51 44 37 -3 37 -4 39 -46 3
-61 37 -129 66 -129 7 0 13 -4 13 -9 0 -18 79 -42 147 -44 24 -1 43 -6 43 -10
0 -5 5 -5 11 -2 6 4 27 8 47 10 79 7 145 40 212 105 91 88 84 19 84 920 0 725
-1 798 -17 827 -20 38 -80 103 -96 103 -6 0 -11 3 -11 8 0 16 -141 65 -164 56
-8 -3 -17 0 -21 5 -3 6 -10 9 -15 6 -5 -3 -39 -7 -75 -9 l-65 -4 -1 32 c0 17
0 713 0 1546 l-1 1516 -21 2 c-51 5 -96 12 -162 27 -64 14 -84 20 -140 41 -11
4 -24 8 -30 9 -26 6 -137 63 -196 101 -97 62 -220 187 -257 262 -9 17 -19 32
-24 32 -4 0 -8 9 -8 20 0 11 -4 20 -10 20 -5 0 -10 8 -10 18 0 10 -4 22 -9 28
-11 12 -42 128 -47 178 -14 129 6 274 50 381 8 19 16 39 16 43 1 4 7 14 14 22
6 8 18 29 26 45 15 31 119 165 155 200 51 48 134 115 143 115 6 0 12 3 14 8 3
8 64 52 72 52 2 0 32 16 66 35 34 19 68 35 76 35 8 0 14 5 14 10 0 6 7 10 15
10 8 0 34 9 58 20 23 10 80 31 127 45 47 14 92 29 100 32 18 8 17 7 57 17 18
4 35 11 38 16 6 9 -80 60 -101 60 -8 0 -14 3 -14 8 0 4 -10 12 -23 18 -63 30
-263 138 -272 145 -5 5 -17 9 -27 9 -10 0 -18 5 -18 10 0 6 -7 10 -15 10 -8 0
-15 4 -15 8 0 4 -10 8 -22 9 -11 1 -24 6 -27 10 -8 11 -134 73 -149 73 -7 0
-12 5 -12 10 0 6 -9 10 -20 10 -11 0 -20 5 -20 10 0 6 -4 10 -10 10 -9 0 -61
23 -210 92 -36 16 -83 38 -105 48 -22 9 -61 27 -87 39 -26 11 -50 21 -53 21
-7 0 -93 38 -127 56 -15 8 -29 14 -30 14 -2 -1 -16 4 -33 10 -68 26 -161 62
-180 70 -11 4 -47 18 -80 30 -33 12 -69 26 -80 30 -33 13 -150 55 -155 55 -3
0 -9 3 -15 6 -5 4 -23 10 -40 14 -44 12 -45 12 -50 15 -3 1 -8 3 -12 5 -5 1
-15 5 -23 8 -33 14 -343 106 -375 111 -5 1 -15 5 -22 9 -6 4 -24 9 -40 11 -15
3 -55 12 -88 21 -65 19 -62 18 -120 30 -55 12 -55 12 -57 14 -3 2 -35 9 -68
14 -8 1 -21 6 -27 10 -7 5 -13 6 -13 4 0 -3 -19 -1 -42 5 -68 15 -249 49 -293
54 -22 3 -53 8 -70 12 -16 5 -45 8 -62 7 -18 0 -33 2 -33 6 0 3 -10 5 -22 6
-13 0 -54 4 -93 8 -187 20 -302 27 -455 26 -202 -1 -304 0 -413 2 -54 1 -99 1
-100 0z"/>
</g>
</svg>
