<svg width="25" height="26" viewBox="0 0 25 26" fill="none" xmlns="http://www.w3.org/2000/svg">
<circle cx="12" cy="13" r="12" stroke="white"/>
<path d="M14.108 18C14.036 18 13.988 17.968 13.964 17.904L13.484 16.392C13.476 16.368 13.46 16.356 13.436 16.356H9.848C9.824 16.356 9.808 16.368 9.8 16.392L9.32 17.904C9.296 17.968 9.248 18 9.176 18H8.528C8.44 18 8.408 17.956 8.432 17.868L11.084 9.696C11.108 9.632 11.156 9.6 11.228 9.6H12.044C12.116 9.6 12.164 9.632 12.188 9.696L14.852 17.868L14.864 17.916C14.864 17.972 14.828 18 14.756 18H14.108ZM10.04 15.6C10.032 15.616 10.032 15.632 10.04 15.648C10.056 15.656 10.072 15.66 10.088 15.66H13.184C13.2 15.66 13.212 15.656 13.22 15.648C13.236 15.632 13.24 15.616 13.232 15.6L11.672 10.704C11.664 10.688 11.652 10.68 11.636 10.68C11.62 10.68 11.608 10.688 11.6 10.704L10.04 15.6Z" fill="white"/>
</svg>
