<svg width="24" height="24" viewBox="0 0 24 24" fill="none" xmlns="http://www.w3.org/2000/svg">
<path fill-rule="evenodd" clip-rule="evenodd" d="M0 12C0 5.38312 5.38312 0 12 0C18.6169 0 24 5.38312 24 12C24 18.6169 18.6169 24 12 24C5.38312 24 0 18.6169 0 12ZM21.6521 11.3595L23.109 13.7741C23.2009 13.1959 23.25 12.6038 23.25 12C23.25 10.7426 23.0396 9.53438 22.6575 8.4045L21.6521 11.3595ZM20.2747 19.6118C20.2264 19.5994 20.1746 19.5956 20.1217 19.6042L16.4925 20.1862C16.4846 20.142 16.4711 20.0977 16.4464 20.0569L14.3831 16.6181L17.7191 11.4806H20.8796C20.8883 11.5211 20.8972 11.5612 20.919 11.5976L22.8825 14.8519C22.4104 16.6537 21.5006 18.2805 20.2747 19.6118ZM19.3759 20.4836L16.4929 20.9456L14.9861 22.8446C16.6305 22.3913 18.1241 21.5734 19.3759 20.4836ZM4.74375 3.4125C6.63975 1.80788 9.07162 0.820125 11.7292 0.75675C11.7487 0.8085 11.7765 0.85725 11.8193 0.89775L13.8911 2.853L13.0717 5.9115L7.73287 7.96088C7.72617 7.95546 7.71995 7.9496 7.71375 7.94375C7.70191 7.9326 7.69013 7.9215 7.67513 7.91363L4.34888 6.15075L4.74375 3.4125ZM12.7886 0.78075L14.3947 2.2965L16.9095 1.87987C15.6491 1.26562 14.2571 0.883125 12.7886 0.78075ZM8.22375 14.5264L7.91775 8.69362L13.3706 6.6L17.0467 11.1397L13.8656 16.0384L8.22375 14.5264ZM22.2264 7.36867C22.2308 7.36212 22.2353 7.35554 22.2394 7.3485C21.3086 5.3085 19.788 3.59288 17.8943 2.42287C17.8455 2.46187 17.7904 2.49375 17.7244 2.50462L14.6231 3.01875L13.8308 5.97637L17.6809 10.7306H21.0739L22.2045 7.40812C22.2096 7.3932 22.218 7.38098 22.2264 7.36867ZM3.86662 4.24013L3.56588 6.3255L1.56 7.81612C2.09812 6.47775 2.886 5.26688 3.86662 4.24013ZM1.16297 9.03962C1.15729 9.04216 1.1516 9.0447 1.146 9.04762C0.8895 9.98925 0.75 10.9781 0.75 12C0.75 13.6436 1.10738 15.2044 1.74338 16.6133C1.74805 16.6148 1.75279 16.6154 1.75754 16.616C1.76348 16.6167 1.76942 16.6175 1.77525 16.62L4.54763 17.8091L4.55539 17.7953C4.56902 17.7709 4.58268 17.7464 4.6035 17.7259L7.49475 14.865C7.49422 14.8606 7.49302 14.8563 7.49182 14.8521C7.49048 14.8473 7.48915 14.8426 7.48875 14.8376L7.15575 8.48662L4.0965 6.8655L1.19512 9.02213C1.18497 9.0298 1.174 9.0347 1.16297 9.03962ZM2.27925 17.652L4.30988 18.5228L5.86275 21.4211C4.395 20.4615 3.165 19.1696 2.27925 17.652ZM7.05795 22.083C7.05975 22.0909 7.06156 22.0988 7.06388 22.1066C8.55525 22.8379 10.23 23.25 12 23.25C12.6221 23.25 13.2319 23.1971 13.827 23.0996L15.8704 20.5245C15.8449 20.5009 15.8224 20.4743 15.8036 20.4431L13.581 16.7385L8.14087 15.2805L5.13075 18.2588C5.11068 18.2788 5.08704 18.2918 5.0634 18.3047C5.05834 18.3075 5.05328 18.3103 5.04825 18.3131L7.04213 22.0346C7.05047 22.0501 7.05421 22.0665 7.05795 22.083Z" fill="white"/>
</svg>
