<svg width="16" height="16" viewBox="0 0 16 16" fill="none" xmlns="http://www.w3.org/2000/svg">
<path d="M11.5112 10.0524L8.32761 7.82622V3.99999C8.32761 3.81966 8.18007 3.67212 7.99974 3.67212C7.81942 3.67212 7.67188 3.81966 7.67188 3.99999V7.99999C7.67188 8.10818 7.72433 8.20655 7.81286 8.26884L11.1374 10.5934C11.1932 10.6328 11.2588 10.6524 11.3243 10.6524C11.426 10.6524 11.5276 10.6033 11.5932 10.5082C11.6948 10.3606 11.6588 10.1574 11.5112 10.0524Z" fill="white"/>
<path fill-rule="evenodd" clip-rule="evenodd" d="M8 0C10.1311 0 12.1377 0.832787 13.6525 2.34754C15.1672 3.8623 16 5.86885 16 8C16 10.1311 15.1672 12.1377 13.6525 13.6525C12.1377 15.1672 10.1311 16 8 16C5.86885 16 3.8623 15.1672 2.34754 13.6525C0.832787 12.1377 0 10.1311 0 8C0 5.86885 0.832787 3.8623 2.34754 2.34754C3.8623 0.832787 5.86885 0 8 0ZM8.32787 14V15.3377C12.118 15.1705 15.1705 12.118 15.3377 8.32787H14C13.8197 8.32787 13.6721 8.18033 13.6721 8C13.6721 7.81967 13.8197 7.67213 14 7.67213H15.3377C15.1705 3.88197 12.118 0.829508 8.32787 0.662295V2C8.32787 2.18033 8.18033 2.32787 8 2.32787C7.81967 2.32787 7.67213 2.18033 7.67213 2V0.662295C3.88197 0.829508 0.829508 3.88197 0.662295 7.67213H2C2.18033 7.67213 2.32787 7.81967 2.32787 8C2.32787 8.18033 2.18033 8.32787 2 8.32787H0.662295C0.829508 12.118 3.88197 15.1705 7.67213 15.3377V14C7.67213 13.8197 7.81967 13.6721 8 13.6721C8.18033 13.6721 8.32787 13.8197 8.32787 14Z" fill="white"/>
</svg>
