<svg width="12" height="16" viewBox="0 0 12 16" fill="none" xmlns="http://www.w3.org/2000/svg">
<path fill-rule="evenodd" clip-rule="evenodd" d="M12 0L0 0L0 16H12L12 0ZM8.2221 8.24744C8.08888 9.26803 7.1435 10.0619 6 10.0619C4.8565 10.0619 3.91112 9.26803 3.7779 8.24744H8.2221ZM7.88061 2.30928V0.494844L4.11943 0.494844V2.30928H7.88061ZM3.7779 7.75256C3.91112 6.73197 4.8565 5.93813 6 5.93813C7.1435 5.93813 8.08888 6.73197 8.2221 7.75256L3.7779 7.75256ZM6 5.44328C7.4401 5.44328 8.62731 6.45847 8.7629 7.75256H11.4627V0.494844L8.41792 0.494844V2.80413L7.68007 2.80413C7.55086 3.55103 6.84677 4.12372 6 4.12372C5.15323 4.12372 4.44914 3.551 4.31993 2.80413H3.58208V0.494844L0.537312 0.494844V7.75256H3.2371C3.37272 6.45847 4.5599 5.44328 6 5.44328ZM7.13254 2.80413C7.0109 3.27638 6.54946 3.62888 6 3.62888C5.45054 3.62888 4.9891 3.27638 4.86746 2.80413H7.13254ZM4.1194 13.6907V15.5052H7.88061V13.6907H4.1194ZM8.41792 15.5052V13.1959H7.68007C7.55086 12.449 6.84677 11.8763 6 11.8763C5.15323 11.8763 4.44914 12.449 4.31993 13.1959H3.58208L3.58208 15.5052H0.537312L0.537312 8.24744H3.2371C3.37269 9.54153 4.5599 10.5567 6 10.5567C7.4401 10.5567 8.62728 9.54153 8.7629 8.24744H11.4627L11.4627 15.5052H8.41792ZM6 12.3711C5.45054 12.3711 4.9891 12.7236 4.86746 13.1959H7.13254C7.0109 12.7236 6.54946 12.3711 6 12.3711Z" fill="white"/>
</svg>
