<svg width="18" height="18" viewBox="0 0 18 18" fill="none" xmlns="http://www.w3.org/2000/svg">
<path d="M10.5786 14.2785C10.9691 14.6691 11.6023 14.6691 11.9928 14.2785C12.3833 13.888 12.3833 13.2548 11.9928 12.8643L10.5786 14.2785ZM6.71429 9L7.42139 8.29289C7.03087 7.90237 6.3977 7.90237 6.00718 8.29289L6.71429 9ZM1 14.7143H0C0 15.1187 0.243642 15.4834 0.617317 15.6382C0.990991 15.7929 1.42111 15.7074 1.70711 15.4214L1 14.7143ZM1 1V0C0.447715 0 0 0.447715 0 1L1 1ZM17 1H18C18 0.447715 17.5523 0 17 0V1ZM16 13.5714C16 14.1237 16.4477 14.5714 17 14.5714C17.5523 14.5714 18 14.1237 18 13.5714H16ZM8.29289 10.5786C7.90237 10.9691 7.90237 11.6023 8.29289 11.9928C8.68342 12.3833 9.31658 12.3833 9.70711 11.9928L8.29289 10.5786ZM12.4286 7.85714L13.1357 7.15004C12.9481 6.9625 12.6938 6.85714 12.4286 6.85714C12.1634 6.85714 11.909 6.9625 11.7215 7.15004L12.4286 7.85714ZM17 12.4286H18C18 12.1634 17.8946 11.909 17.7071 11.7215L17 12.4286ZM17 17V18C17.5523 18 18 17.5523 18 17H17ZM1 17H0C0 17.5523 0.447715 18 1 18L1 17ZM2 13.5714C2 13.0191 1.55228 12.5714 1 12.5714C0.447715 12.5714 0 13.0191 0 13.5714H2ZM11.9928 12.8643L7.42139 8.29289L6.00718 9.70711L10.5786 14.2785L11.9928 12.8643ZM6.00718 8.29289L0.292893 14.0072L1.70711 15.4214L7.42139 9.70711L6.00718 8.29289ZM2 14.7143V1H0V14.7143H2ZM1 2H17V0H1V2ZM16 1V13.5714H18V1H16ZM9.70711 11.9928L13.1357 8.56425L11.7215 7.15004L8.29289 10.5786L9.70711 11.9928ZM11.7215 8.56425L16.2929 13.1357L17.7071 11.7215L13.1357 7.15004L11.7215 8.56425ZM16 12.4286V17H18V12.4286H16ZM17 16H1V18H17V16ZM2 17V13.5714H0V17H2Z" fill="white"/>
<circle cx="5.56975" cy="4.99999" r="1.71429" fill="white" stroke="white" stroke-width="2" stroke-linecap="round" stroke-linejoin="round"/>
</svg>
