<svg width="13" height="16" viewBox="0 0 13 16" fill="none" xmlns="http://www.w3.org/2000/svg">
<path fill-rule="evenodd" clip-rule="evenodd" d="M0 6.47945C0 2.90665 2.91587 0 6.5 0C10.0841 0 13 2.90665 13 6.47945C13 7.95378 12.5158 9.3417 11.5997 10.4933C10.4122 11.986 6.95858 15.5298 6.81212 15.68L6.49996 16L6.18784 15.6799C6.04146 15.5299 2.58886 11.9868 1.4016 10.4946C0.484658 9.34209 0 7.95369 0 6.47945ZM6.50002 15C7.37383 14.0678 9.88204 11.3727 10.816 10.1611C11.5906 9.15633 12 7.94491 12 6.65788C12 3.5381 9.53272 1 6.50002 1C3.46728 1 1 3.5381 1 6.65788C1 7.94482 1.40985 9.15663 2.18523 10.1624C3.11898 11.3735 5.62629 14.0679 6.50002 15Z" fill="black"/>
<path fill-rule="evenodd" clip-rule="evenodd" d="M3 7C3 4.79437 4.79437 3 7 3C9.20563 3 11 4.79442 11 7C11 9.20558 9.20558 11 7 11C4.79442 11 3 9.20563 3 7ZM4 7C4 8.65418 5.34577 10 7 10C8.65423 10 10 8.65423 10 7C9.99996 5.34582 8.65418 4 7 4C5.34582 4 4 5.34577 4 7Z" fill="black"/>
</svg>
