<svg width="24" height="24" viewBox="0 0 24 24" fill="none" xmlns="http://www.w3.org/2000/svg">
<path fill-rule="evenodd" clip-rule="evenodd" d="M7.79229 24H1.02129C0.216812 24 -0.185426 23.1504 0.0827329 21.9823L4.64143 1.48673C4.84255 0.424779 5.37886 0 5.98222 0H10.9432C11.7476 0 12.1499 0.849557 11.9487 2.0177L8.999 22.4071C8.86493 23.469 8.46269 24 7.79229 24ZM19.8953 24H13.0348C12.2197 24 11.8121 23.1504 12.0838 21.9823L16.6349 1.48673C16.8387 0.424779 17.3141 0 17.9934 0H22.952C23.7671 0 24.1067 0.849557 23.9709 2.0177L21.118 22.4071C20.9821 23.469 20.5746 24 19.8953 24Z" fill="#004f9f"/>
</svg>
