<svg width="24" height="24" viewBox="0 0 24 24" fill="none" xmlns="http://www.w3.org/2000/svg">
<path fill-rule="evenodd" clip-rule="evenodd" d="M4.10468 0H10.9652C11.7803 0 12.1879 0.849557 11.9162 2.0177L7.36513 22.5133C7.16135 23.5752 6.68587 24 6.00661 24H1.048C0.232889 24 -0.106741 23.1504 0.0291112 21.9823L2.88201 1.59292C3.01786 0.530973 3.42541 0 4.10468 0ZM16.2077 0H22.9787C23.7832 0 24.1854 0.849557 23.9173 2.0177L19.3586 22.5133C19.1575 23.5752 18.6211 24 18.0178 24H13.0568C12.2524 24 11.8501 23.1504 12.0513 21.9823L15.001 1.59292C15.1351 0.530973 15.5373 0 16.2077 0Z" fill="#004f9f"/>
</svg>
