<svg width="16" height="14" viewBox="0 0 16 14" fill="none" xmlns="http://www.w3.org/2000/svg">
<path d="M15.7443 6.10758L9.9661 0.258603C9.80115 0.0916434 9.58132 0 9.34691 0C9.11225 0 8.89254 0.0917751 8.7276 0.258603L8.20299 0.789766C8.03818 0.956462 7.94738 1.17912 7.94738 1.41652C7.94738 1.65379 8.03818 1.88396 8.20299 2.05065L11.5739 5.47029H0.864383C0.381525 5.47029 0 5.85293 0 6.34183V7.09275C0 7.58165 0.381525 8.00286 0.864383 8.00286H11.6121L8.20312 11.4416C8.03831 11.6086 7.94751 11.8252 7.94751 12.0626C7.94751 12.2997 8.03831 12.5195 8.20312 12.6863L8.72773 13.2157C8.89267 13.3827 9.11238 13.4737 9.34704 13.4737C9.58145 13.4737 9.80128 13.3815 9.96623 13.2146L15.7444 7.36571C15.9097 7.19822 16.0006 6.97464 16 6.73697C16.0005 6.49852 15.9097 6.27481 15.7443 6.10758Z" fill="#004f9f"/>
</svg>
