<svg width="12" height="16" viewBox="0 0 12 16" fill="none" xmlns="http://www.w3.org/2000/svg">
<path fill-rule="evenodd" clip-rule="evenodd" d="M12 9C12 13.125 6 16 6 16C6 16 0 13.125 0 9V2C0 2 0.362277 2.05649 0.929592 2.05649C2.18618 2.05649 4.4467 1.77949 6 0C7.5533 1.77949 9.81427 2.05649 11.0699 2.05649C11.6372 2.05649 12 2 12 2V9ZM0.930071 3.05649H0.917253V9C0.917253 11.64 4.29721 13.9885 6.00003 14.8965C7.70147 13.9855 11.0837 11.6315 11.0837 9V3.05649H11.0709C9.86198 3.05649 7.7221 2.81701 6.00048 1.347C4.27886 2.81698 2.1385 3.05649 0.930071 3.05649Z" fill="white"/>
<path d="M9 5.59904L8.29895 5L5.32777 10.5014L3.49082 8.86213L3 9.73079L5.54309 12L9 5.59904Z" fill="white"/>
</svg>
