<svg width="25" height="26" viewBox="0 0 25 26" fill="none" xmlns="http://www.w3.org/2000/svg"><circle cx="12" cy="13" r="12" stroke="#fff"/><path d="M14.108 18c-.072 0-.12-.032-.144-.096l-.48-1.512c-.008-.024-.024-.036-.048-.036H9.848c-.024 0-.04.012-.048.036l-.48 1.512c-.024.064-.072.096-.144.096h-.648c-.088 0-.12-.044-.096-.132l2.652-8.172c.024-.064.072-.096.144-.096h.816c.072 0 .12.032.144.096l2.664 8.172.012.048c0 .056-.036.084-.108.084h-.648zm-4.068-2.4a.051.051 0 000 .048.107.107 0 00.048.012h3.096c.016 0 .028-.004.036-.012.016-.016.02-.032.012-.048l-1.56-4.896c-.008-.016-.02-.024-.036-.024-.016 0-.028.008-.036.024L10.04 15.6z" fill="#fff"/></svg>