<svg width="24" height="24" viewBox="0 0 24 24" fill="none" xmlns="http://www.w3.org/2000/svg"><path fill-rule="evenodd" clip-rule="evenodd" d="M0 12C0 5.383 5.383 0 12 0s12 5.383 12 12-5.383 12-12 12S0 18.617 0 12zm21.652-.64l1.457 2.414a11.2 11.2 0 00-.452-5.37l-1.005 2.956zm-1.377 8.252a.373.373 0 00-.153-.008l-3.63.582a.373.373 0 00-.046-.13l-2.063-3.438 3.336-5.137h3.16c.01.04.018.08.04.117l1.963 3.254a11.234 11.234 0 01-2.607 4.76zm-.9.872l-2.882.462-1.507 1.899a11.233 11.233 0 004.39-2.361zM4.745 3.412A11.197 11.197 0 0111.729.758c.02.051.048.1.09.14l2.072 1.956-.82 3.058-5.338 2.05a.336.336 0 01-.02-.017c-.011-.011-.023-.022-.038-.03L4.35 6.15l.395-2.738zM12.789.782l1.606 1.515 2.515-.416a11.161 11.161 0 00-4.121-1.1zM8.224 14.526l-.306-5.832L13.37 6.6l3.676 4.54-3.181 4.898-5.642-1.512zM22.226 7.37c.005-.007.01-.013.013-.02a11.326 11.326 0 00-4.345-4.926.367.367 0 01-.17.082l-3.1.514-.793 2.957 3.85 4.755h3.393l1.13-3.323c.006-.015.014-.027.022-.04zM3.866 4.24l-.3 2.085L1.56 7.816A11.263 11.263 0 013.867 4.24zm-2.703 4.8l-.017.008a11.214 11.214 0 00.597 7.565l.015.003c.005 0 .011.002.017.004l2.773 1.19.007-.015c.014-.024.028-.049.049-.07l2.89-2.86a.084.084 0 00-.002-.013l-.003-.014-.333-6.351-3.06-1.622-2.9 2.157a.158.158 0 01-.033.018zm1.116 8.612l2.03.87 1.554 2.9a11.333 11.333 0 01-3.584-3.77zm4.779 4.431a.373.373 0 00.006.024 11.18 11.18 0 006.763.993l2.043-2.576a.371.371 0 01-.066-.08l-2.223-3.706-5.44-1.457-3.01 2.978a.283.283 0 01-.068.046l-.015.008 1.994 3.722a.185.185 0 01.016.048z" fill="#fff"/></svg>