<svg width="16" height="16" viewBox="0 0 16 16" fill="none" xmlns="http://www.w3.org/2000/svg"><path d="M11.511 10.052L8.328 7.826V4A.329.329 0 008 3.672.329.329 0 007.672 4v4c0 .108.052.207.14.269l3.325 2.324a.324.324 0 00.456-.085.33.33 0 00-.082-.456z" fill="#fff"/><path fill-rule="evenodd" clip-rule="evenodd" d="M8 0c2.131 0 4.138.833 5.652 2.348A7.943 7.943 0 0116 8a7.943 7.943 0 01-2.348 5.652A7.943 7.943 0 018 16a7.943 7.943 0 01-5.652-2.348A7.943 7.943 0 010 8c0-2.131.833-4.138 2.348-5.652A7.942 7.942 0 018 0zm.328 14v1.338a7.354 7.354 0 007.01-7.01H14A.329.329 0 0113.672 8c0-.18.148-.328.328-.328h1.338a7.354 7.354 0 00-7.01-7.01V2c0 .18-.148.328-.328.328A.329.329 0 017.672 2V.662a7.354 7.354 0 00-7.01 7.01H2c.18 0 .328.148.328.328 0 .18-.148.328-.328.328H.662a7.354 7.354 0 007.01 7.01V14c0-.18.148-.328.328-.328.18 0 .328.148.328.328z" fill="#fff"/></svg>