<svg width="12" height="16" viewBox="0 0 12 16" fill="none" xmlns="http://www.w3.org/2000/svg"><path fill-rule="evenodd" clip-rule="evenodd" d="M12 0H0v16h12V0zM8.222 8.247C8.09 9.268 7.144 10.062 6 10.062s-2.089-.794-2.222-1.815h4.444zM7.881 2.31V.495H4.119v1.814h3.762zM3.778 7.753C3.91 6.732 4.856 5.938 6 5.938s2.089.794 2.222 1.815H3.778zM6 5.443c1.44 0 2.627 1.015 2.763 2.31h2.7V.495H8.418v2.31H7.68C7.55 3.55 6.847 4.123 6 4.123s-1.55-.573-1.68-1.32h-.738V.494H.537v7.259h2.7C3.373 6.458 4.56 5.443 6 5.443zm1.133-2.639c-.122.472-.584.825-1.133.825-.55 0-1.01-.353-1.133-.825h2.266zM4.119 13.691v1.814h3.762v-1.814H4.119zm4.299 1.814v-2.31H7.68c-.13-.746-.833-1.319-1.68-1.319s-1.55.573-1.68 1.32h-.738v2.31H.537V8.246h2.7c.136 1.295 1.323 2.31 2.763 2.31s2.627-1.015 2.763-2.31h2.7v7.258H8.418zM6 12.371c-.55 0-1.01.353-1.133.825h2.266c-.122-.472-.584-.825-1.133-.825z" fill="#fff"/></svg>