<svg width="18" height="18" viewBox="0 0 18 18" fill="none" xmlns="http://www.w3.org/2000/svg"><path d="M10.579 14.278a1 1 0 101.414-1.414l-1.414 1.414zM6.714 9l.707-.707a1 1 0 00-1.414 0L6.714 9zM1 14.714H0a1 1 0 001.707.707L1 14.714zM1 1V0a1 1 0 00-1 1h1zm16 0h1a1 1 0 00-1-1v1zm-1 12.571a1 1 0 102 0h-2zM8.293 10.58a1 1 0 101.414 1.414l-1.414-1.414zm4.136-2.722l.707-.707a1 1 0 00-1.414 0l.707.707zM17 12.43h1a1 1 0 00-.293-.707l-.707.707zM17 17v1a1 1 0 001-1h-1zM1 17H0a1 1 0 001 1v-1zm1-3.429a1 1 0 10-2 0h2zm9.993-.707L7.42 8.293 6.007 9.707l4.572 4.571 1.414-1.414zM6.007 8.293L.293 14.007l1.414 1.414 5.714-5.714-1.414-1.414zM2 14.714V1H0v13.714h2zM1 2h16V0H1v2zm15-1v12.571h2V1h-2zM9.707 11.993l3.429-3.429-1.414-1.414-3.43 3.429 1.415 1.414zm2.014-3.429l4.572 4.572 1.414-1.414-4.571-4.572-1.414 1.414zM16 12.43V17h2v-4.571h-2zM17 16H1v2h16v-2zM2 17v-3.429H0V17h2z" fill="#fff"/><circle cx="5.57" cy="5" r="1.71" fill="#fff" stroke="#fff" stroke-width="2" stroke-linecap="round" stroke-linejoin="round"/></svg>