<svg width="30" height="30" viewBox="0 0 30 30" fill="none" xmlns="http://www.w3.org/2000/svg"><path d="M17.871 15a2.871 2.871 0 11-5.742 0 2.871 2.871 0 015.742 0z" fill="#fff"/><path fill-rule="evenodd" clip-rule="evenodd" d="M21.714 9.92a2.669 2.669 0 00-.644-.99 2.666 2.666 0 00-.99-.644c-.304-.118-.76-.259-1.6-.297-.908-.041-1.18-.05-3.48-.05s-2.572.008-3.48.05c-.84.038-1.297.179-1.6.297a2.665 2.665 0 00-.99.644 2.67 2.67 0 00-.645.99c-.118.304-.258.76-.296 1.6-.042.908-.05 1.18-.05 3.48s.008 2.572.05 3.48c.038.84.178 1.297.296 1.6.138.374.358.713.645.99.277.287.616.507.99.645.303.118.76.258 1.6.296.908.042 1.18.05 3.48.05s2.572-.008 3.48-.05c.84-.038 1.296-.178 1.6-.296a2.852 2.852 0 001.634-1.635c.118-.303.259-.76.297-1.6.041-.908.05-1.18.05-3.48s-.009-2.572-.05-3.48c-.038-.84-.178-1.296-.297-1.6zM15 19.423a4.423 4.423 0 110-8.846 4.423 4.423 0 010 8.846zm3.564-9.02a1.034 1.034 0 102.067 0 1.034 1.034 0 00-2.067 0z" fill="#fff"/><path fill-rule="evenodd" clip-rule="evenodd" d="M0 15C0 6.717 6.717 0 15 0c8.283 0 15 6.717 15 15 0 8.283-6.717 15-15 15-8.283 0-15-6.717-15-15zm23.161 5.642c.213-.548.359-1.174.4-2.09.042-.92.052-1.213.052-3.552 0-2.34-.01-2.633-.051-3.551-.042-.917-.188-1.543-.401-2.09a4.222 4.222 0 00-.993-1.526 4.222 4.222 0 00-1.526-.994c-.548-.213-1.174-.358-2.09-.4-.92-.042-1.213-.052-3.552-.052-2.34 0-2.633.01-3.551.052-.917.042-1.543.187-2.09.4a4.219 4.219 0 00-1.526.994 4.22 4.22 0 00-.994 1.525c-.213.548-.359 1.174-.4 2.09-.042.92-.052 1.213-.052 3.552 0 2.34.01 2.633.052 3.551.042.917.187 1.543.4 2.09a4.22 4.22 0 00.994 1.526c.43.439.95.778 1.525.994.548.213 1.174.358 2.09.4.92.042 1.213.052 3.552.052 2.34 0 2.633-.01 3.551-.052.917-.042 1.543-.187 2.09-.4a4.404 4.404 0 002.52-2.52z" fill="#fff"/></svg>