<svg width="13" height="16" viewBox="0 0 13 16" fill="none" xmlns="http://www.w3.org/2000/svg"><path fill-rule="evenodd" clip-rule="evenodd" d="M0 6.48C0 2.906 2.916 0 6.5 0S13 2.907 13 6.48a6.384 6.384 0 01-1.4 4.013c-1.188 1.493-4.641 5.037-4.788 5.187L6.5 16l-.312-.32c-.147-.15-3.6-3.693-4.786-5.185A6.386 6.386 0 010 6.479zM6.5 15c.874-.932 3.382-3.627 4.316-4.839A5.685 5.685 0 0012 6.658C12 3.538 9.533 1 6.5 1S1 3.538 1 6.658c0 1.287.41 2.499 1.185 3.504C3.12 11.373 5.626 14.068 6.5 15z" fill="#000"/><path fill-rule="evenodd" clip-rule="evenodd" d="M3 7c0-2.206 1.794-4 4-4s4 1.794 4 4-1.794 4-4 4-4-1.794-4-4zm1 0c0 1.654 1.346 3 3 3s3-1.346 3-3-1.346-3-3-3-3 1.346-3 3z" fill="#000"/></svg>