<svg width="12" height="16" viewBox="0 0 12 16" fill="none" xmlns="http://www.w3.org/2000/svg"><path fill-rule="evenodd" clip-rule="evenodd" d="M12 9c0 4.125-6 7-6 7s-6-2.875-6-7V2s.362.056.93.056C2.186 2.056 4.447 1.78 6 0c1.553 1.78 3.814 2.056 5.07 2.056.567 0 .93-.056.93-.056v7zM.93 3.056H.917V9c0 2.64 3.38 4.989 5.083 5.896 1.701-.91 5.084-3.264 5.084-5.896V3.056h-.013c-1.209 0-3.349-.239-5.07-1.709-1.722 1.47-3.863 1.71-5.07 1.71z" fill="#fff"/><path d="M9 5.599L8.299 5l-2.971 5.501L3.49 8.862 3 9.731 5.543 12 9 5.599z" fill="#fff"/></svg>