<svg width="30" height="30" viewBox="0 0 30 30" fill="none" xmlns="http://www.w3.org/2000/svg"><path d="M13.132 17.81l4.88-2.81-4.88-2.81v5.62z" fill="#fff"/><path fill-rule="evenodd" clip-rule="evenodd" d="M0 15C0 6.717 6.717 0 15 0c8.283 0 15 6.717 15 15 0 8.283-6.717 15-15 15-8.283 0-15-6.717-15-15zm23.987 4.524c.386-1.467.386-4.509.386-4.509s.015-3.057-.386-4.524a2.349 2.349 0 00-1.652-1.652C20.867 8.437 15 8.437 15 8.437s-5.868 0-7.335.387a2.396 2.396 0 00-1.652 1.667C5.627 11.958 5.627 15 5.627 15s0 3.057.386 4.509c.216.803.85 1.436 1.652 1.652 1.483.401 7.335.401 7.335.401s5.868 0 7.334-.386a2.349 2.349 0 001.653-1.652z" fill="#fff"/></svg>